<svg xmlns="http://www.w3.org/2000/svg" xmlns:xlink="http://www.w3.org/1999/xlink" contentStyleType="text/css" height="778px" preserveAspectRatio="none" style="width:2957px;height:778px;background:#FFFFFF;" version="1.1" viewBox="0 0 2957 778" width="2957px" zoomAndPan="magnify"><defs/><g><g id="Person"><rect fill="#F1F1F1" height="36.2969" style="stroke:#181818;stroke-width:0.5;" width="69" x="798" y="210"/><text fill="#000000" font-family="sans-serif" font-size="14" lengthAdjust="spacing" textLength="49" x="808" y="232.9951">Person</text></g><g id="Person/ID : INTEGER"><ellipse cx="285.466" cy="126.9932" fill="#F1F1F1" rx="62.966" ry="14.9932" style="stroke:#181818;stroke-width:0.5;"/><text fill="#000000" font-family="sans-serif" font-size="14" lengthAdjust="spacing" text-decoration="underline" textLength="88" x="241.466" y="130.9951">ID : INTEGER</text></g><g id="Person/Name"><ellipse cx="415.2843" cy="127.0236" fill="#F1F1F1" rx="31.2843" ry="14.5236" style="stroke:#181818;stroke-width:0.5;"/><text fill="#000000" font-family="sans-serif" font-size="14" lengthAdjust="spacing" textLength="40" x="395.2843" y="131.4951">Name</text></g><g id="Person/Name/First Name : STRING"><ellipse cx="314.6307" cy="25.0261" fill="#F1F1F1" rx="83.1307" ry="19.0261" style="stroke:#181818;stroke-width:0.5;"/><text fill="#000000" font-family="sans-serif" font-size="14" lengthAdjust="spacing" textLength="138" x="245.6307" y="24.9951">First Name : STRING</text></g><g id="Person/Name/Last Name : STRING"><ellipse cx="515.7005" cy="24.9401" fill="#F1F1F1" rx="82.7005" ry="18.9401" style="stroke:#181818;stroke-width:0.5;"/><text fill="#000000" font-family="sans-serif" font-size="14" lengthAdjust="spacing" textLength="137" x="447.2005" y="24.9951">Last Name : STRING</text></g><g id="Person/Date of Birth : DATE"><ellipse cx="564.7005" cy="126.9401" fill="#F1F1F1" rx="82.7005" ry="18.9401" style="stroke:#181818;stroke-width:0.5;"/><text fill="#000000" font-family="sans-serif" font-size="14" lengthAdjust="spacing" textLength="137" x="496.2005" y="126.9951">Date of Birth : DATE</text></g><g id="Person/Age : Integer"><ellipse cx="745.3339" cy="127.0668" fill="#F1F1F1" rx="63.3339" ry="15.0668" style="stroke:#181818;stroke-width:0.5;stroke-dasharray:10.0,10.0;"/><text fill="#000000" font-family="sans-serif" font-size="14" lengthAdjust="spacing" textLength="89" x="700.8339" y="130.9951">Age : Integer</text></g><g id="Person/Address : STRING"><ellipse cx="920.3548" cy="127.171" fill="#F1F1F1" rx="76.3548" ry="17.671" style="stroke:#181818;stroke-width:0.5;"/><text fill="#000000" font-family="sans-serif" font-size="14" lengthAdjust="spacing" textLength="122" x="859.3548" y="128.4951">Address : STRING</text></g><g id="Person/Email : STRING"><ellipse cx="1100.3859" cy="126.9772" fill="#F1F1F1" rx="67.8859" ry="15.9772" style="stroke:#181818;stroke-width:0.5;"/><text fill="#000000" font-family="sans-serif" font-size="14" lengthAdjust="spacing" textLength="101" x="1049.8859" y="129.9951">Email : STRING</text></g><g id="Person/Phone Number : STRING"><ellipse cx="1300.3093" cy="126.7619" fill="#F1F1F1" rx="96.8093" ry="21.7619" style="stroke:#181818;stroke-width:0.5;"/><text fill="#000000" font-family="sans-serif" font-size="14" lengthAdjust="spacing" textLength="169" x="1215.8093" y="123.9951">Phone Number : STRING</text></g><g id="Person/Gender : STRING"><ellipse cx="1507.2894" cy="126.7579" fill="#F1F1F1" rx="74.2894" ry="17.2579" style="stroke:#181818;stroke-width:0.5;"/><text fill="#000000" font-family="sans-serif" font-size="14" lengthAdjust="spacing" textLength="117" x="1448.7894" y="128.4951">Gender : STRING</text></g><g id="Student"><rect fill="#F1F1F1" height="36.2969" style="stroke:#181818;stroke-width:0.5;" width="75" x="533" y="512"/><text fill="#000000" font-family="sans-serif" font-size="14" lengthAdjust="spacing" textLength="55" x="543" y="534.9951">Student</text></g><g id="Student/First Term : INTEGER"><ellipse cx="375.2932" cy="428.9586" fill="#F1F1F1" rx="85.2932" ry="19.4586" style="stroke:#181818;stroke-width:0.5;"/><text fill="#000000" font-family="sans-serif" font-size="14" lengthAdjust="spacing" textLength="143" x="303.7932" y="428.4951">First Term : INTEGER</text></g><g id="Student/Terms : INTEGER"><ellipse cx="570.7002" cy="428.84" fill="#F1F1F1" rx="74.7002" ry="17.34" style="stroke:#181818;stroke-width:0.5;stroke-dasharray:10.0,10.0;"/><text fill="#000000" font-family="sans-serif" font-size="14" lengthAdjust="spacing" textLength="118" x="511.7002" y="430.4951">Terms : INTEGER</text></g><g id="Professor"><rect fill="#F1F1F1" height="36.2969" style="stroke:#181818;stroke-width:0.5;" width="86" x="2545.5" y="512"/><text fill="#000000" font-family="sans-serif" font-size="14" lengthAdjust="spacing" textLength="66" x="2555.5" y="534.9951">Professor</text></g><g id="Professor/Position"><ellipse cx="2489.7007" cy="428.9401" fill="#F1F1F1" rx="65.2007" ry="15.4401" style="stroke:#181818;stroke-width:0.5;"/><text fill="#000000" font-family="sans-serif" font-size="14" lengthAdjust="spacing" textLength="94" x="2442.7007" y="432.4951">Title : STRING</text></g><g id="Professor/Office Number : INTEGER"><ellipse cx="2687.6626" cy="429.0325" fill="#F1F1F1" rx="98.1626" ry="22.0325" style="stroke:#181818;stroke-width:0.5;"/><text fill="#000000" font-family="sans-serif" font-size="14" lengthAdjust="spacing" textLength="172" x="2601.6626" y="425.9951">Office Number : INTEGER</text></g><g id="Department"><rect fill="#F1F1F1" height="36.2969" style="stroke:#181818;stroke-width:0.5;" width="103" x="769" y="512"/><text fill="#000000" font-family="sans-serif" font-size="14" lengthAdjust="spacing" textLength="83" x="779" y="534.9951">Department</text></g><g id="Department/ID : INT"><ellipse cx="962.6482" cy="429.0236" fill="#F1F1F1" rx="37.6482" ry="14.5236" style="stroke:#181818;stroke-width:0.5;"/><text fill="#000000" font-family="sans-serif" font-size="14" lengthAdjust="spacing" text-decoration="underline" textLength="49" x="938.1482" y="433.4951">ID : INT</text></g><g id="Department/Name : STRING"><ellipse cx="820.4543" cy="428.7909" fill="#F1F1F1" rx="69.4543" ry="16.2909" style="stroke:#181818;stroke-width:0.5;"/><text fill="#000000" font-family="sans-serif" font-size="14" lengthAdjust="spacing" textLength="105" x="767.9543" y="431.4951">Name : STRING</text></g><g id="Major"><rect fill="#F1F1F1" height="36.2969" style="stroke:#181818;stroke-width:0.5;" width="57" x="203" y="512"/><text fill="#000000" font-family="sans-serif" font-size="14" lengthAdjust="spacing" textLength="37" x="213" y="534.9951">Major</text></g><g id="Major/ID : INT"><ellipse cx="43.6482" cy="429.0236" fill="#F1F1F1" rx="37.6482" ry="14.5236" style="stroke:#181818;stroke-width:0.5;"/><text fill="#000000" font-family="sans-serif" font-size="14" lengthAdjust="spacing" text-decoration="underline" textLength="49" x="19.1482" y="433.4951">ID : INT</text></g><g id="Major/Name : STRING"><ellipse cx="185.4543" cy="428.7909" fill="#F1F1F1" rx="69.4543" ry="16.2909" style="stroke:#181818;stroke-width:0.5;"/><text fill="#000000" font-family="sans-serif" font-size="14" lengthAdjust="spacing" textLength="105" x="132.9543" y="431.4951">Name : STRING</text></g><g id="Course"><rect fill="#F1F1F1" height="36.2969" style="stroke:#181818;stroke-width:0.5;" width="70" x="1827.5" y="512"/><text fill="#000000" font-family="sans-serif" font-size="14" lengthAdjust="spacing" textLength="50" x="1837.5" y="534.9951">Course</text></g><g id="Course/ID : INT"><ellipse cx="1769.6482" cy="429.0236" fill="#F1F1F1" rx="37.6482" ry="14.5236" style="stroke:#181818;stroke-width:0.5;"/><text fill="#000000" font-family="sans-serif" font-size="14" lengthAdjust="spacing" text-decoration="underline" textLength="49" x="1745.1482" y="433.4951">ID : INT</text></g><g id="Course/Name : STRING"><ellipse cx="1911.4543" cy="428.7909" fill="#F1F1F1" rx="69.4543" ry="16.2909" style="stroke:#181818;stroke-width:0.5;"/><text fill="#000000" font-family="sans-serif" font-size="14" lengthAdjust="spacing" textLength="105" x="1858.9543" y="431.4951">Name : STRING</text></g><g id="Course/Theoretical Units : INT"><ellipse cx="2105.2915" cy="429.1583" fill="#F1F1F1" rx="88.7915" ry="20.1583" style="stroke:#181818;stroke-width:0.5;"/><text fill="#000000" font-family="sans-serif" font-size="14" lengthAdjust="spacing" textLength="151" x="2029.7915" y="427.9951">Theoretical Units : INT</text></g><g id="Course/Practical Units : INT"><ellipse cx="2309.6374" cy="428.9275" fill="#F1F1F1" rx="80.1374" ry="18.4275" style="stroke:#181818;stroke-width:0.5;"/><text fill="#000000" font-family="sans-serif" font-size="14" lengthAdjust="spacing" textLength="131" x="2244.1374" y="429.4951">Practical Units : INT</text></g><g id="Course/Total Units : INT"><ellipse cx="1626.6456" cy="429.0291" fill="#F1F1F1" rx="70.6456" ry="16.5291" style="stroke:#181818;stroke-width:0.5;stroke-dasharray:10.0,10.0;"/><text fill="#000000" font-family="sans-serif" font-size="14" lengthAdjust="spacing" textLength="108" x="1572.6456" y="431.4951">Total Units : INT</text></g><g id="CGroup"><rect fill="#F1F1F1" height="36.2969" style="stroke:#181818;stroke-width:0.5;" width="117" x="1298" y="512"/><text fill="#000000" font-family="sans-serif" font-size="14" lengthAdjust="spacing" textLength="97" x="1308" y="534.9951">Course Group</text></g><g id="CGroup/ID : INT"><ellipse cx="1483.6482" cy="429.0236" fill="#F1F1F1" rx="37.6482" ry="14.5236" style="stroke:#181818;stroke-width:0.5;"/><text fill="#000000" font-family="sans-serif" font-size="14" lengthAdjust="spacing" text-decoration="underline" textLength="49" x="1459.1482" y="433.4951">ID : INT</text></g><g id="CGroup/Term : INT"><ellipse cx="1214.7046" cy="429.0236" fill="#F1F1F1" rx="53.2046" ry="14.5236" style="stroke:#181818;stroke-width:0.5;"/><text fill="#000000" font-family="sans-serif" font-size="14" lengthAdjust="spacing" textLength="71" x="1179.2046" y="433.4951">Term : INT</text></g><g id="CGroup/Class : INT"><ellipse cx="1356.4117" cy="429.0236" fill="#F1F1F1" rx="53.9117" ry="14.5236" style="stroke:#181818;stroke-width:0.5;"/><text fill="#000000" font-family="sans-serif" font-size="14" lengthAdjust="spacing" textLength="72" x="1320.4117" y="433.4951">Class : INT</text></g><g id="CGroup/TimeSlot"><ellipse cx="1080.4264" cy="429.0236" fill="#F1F1F1" rx="45.4264" ry="14.5236" style="stroke:#181818;stroke-width:0.5;"/><text fill="#000000" font-family="sans-serif" font-size="14" lengthAdjust="spacing" textLength="60" x="1050.4264" y="433.4951">TimeSlot</text></g><g id="CGroup/TimeSlot/Day of Week : INT"><ellipse cx="997.4395" cy="326.5879" fill="#F1F1F1" rx="75.9395" ry="17.5879" style="stroke:#181818;stroke-width:0.5;"/><text fill="#000000" font-family="sans-serif" font-size="14" lengthAdjust="spacing" textLength="121" x="936.9395" y="327.9951">Day of Week : INT</text></g><g id="CGroup/TimeSlot/Start Time : TIME"><ellipse cx="1182.3797" cy="326.6759" fill="#F1F1F1" rx="73.8797" ry="17.1759" style="stroke:#181818;stroke-width:0.5;"/><text fill="#000000" font-family="sans-serif" font-size="14" lengthAdjust="spacing" textLength="116" x="1124.3797" y="328.4951">Start Time : TIME</text></g><g id="CGroup/TimeSlot/End Time : TIME"><ellipse cx="2879.3489" cy="326.2698" fill="#F1F1F1" rx="71.8489" ry="16.7698" style="stroke:#181818;stroke-width:0.5;"/><text fill="#000000" font-family="sans-serif" font-size="14" lengthAdjust="spacing" textLength="111" x="2823.8489" y="328.4951">End Time : TIME</text></g><g id="CGroup/TimeSlot/Duration : DURATION"><ellipse cx="656.6635" cy="326.6327" fill="#F1F1F1" rx="86.1635" ry="19.6327" style="stroke:#181818;stroke-width:0.5;stroke-dasharray:10.0,10.0;"/><text fill="#000000" font-family="sans-serif" font-size="14" lengthAdjust="spacing" textLength="145" x="584.1635" y="325.9951">Duration : DURATION</text></g><g id="Offers"><polygon fill="#F1F1F1" points="550.5,737.9886,598.4772,714,646.4544,737.9886,598.4772,761.9772" style="stroke:#181818;stroke-width:0.5;"/><text fill="#000000" font-family="sans-serif" font-size="14" lengthAdjust="spacing" textLength="41" x="577.9772" y="742.8353">Offers</text></g><g id="Majors"><polygon fill="#F1F1F1" points="361.5,737.9886,419.4772,709,477.4544,737.9886,419.4772,766.9772" style="stroke:#181818;stroke-width:0.5;"/><text fill="#000000" font-family="sans-serif" font-size="14" lengthAdjust="spacing" textLength="61" x="388.9772" y="742.8353">Majors In</text></g><g id="Studies"><polygon fill="#F1F1F1" points="959,738.2386,1012.4772,711.5,1065.9544,738.2386,1012.4772,764.9772" style="stroke:#181818;stroke-width:0.5;"/><text fill="#000000" font-family="sans-serif" font-size="14" lengthAdjust="spacing" textLength="52" x="986.4772" y="743.0853">Studies</text></g><g id="Studies/Grade : DECIMAL"><ellipse cx="1012.3797" cy="626.1759" fill="#F1F1F1" rx="73.8797" ry="17.1759" style="stroke:#181818;stroke-width:0.5;"/><text fill="#000000" font-family="sans-serif" font-size="14" lengthAdjust="spacing" textLength="116" x="954.3797" y="627.9951">Grade : DECIMAL</text></g><g id="Teaches"><polygon fill="#F1F1F1" points="1880,738.2386,1937.4772,709.5,1994.9544,738.2386,1937.4772,766.9772" style="stroke:#181818;stroke-width:0.5;"/><text fill="#000000" font-family="sans-serif" font-size="14" lengthAdjust="spacing" textLength="60" x="1907.4772" y="743.0853">Teaches</text></g><g id="Implements"><polygon fill="#F1F1F1" points="1352.5,737.9886,1420.4772,704,1488.4544,737.9886,1420.4772,771.9772" style="stroke:#181818;stroke-width:0.5;"/><text fill="#000000" font-family="sans-serif" font-size="14" lengthAdjust="spacing" textLength="81" x="1379.9772" y="742.8353">Implements</text></g><g id="Person/oStudent, Professor/center"><ellipse cx="832.5" cy="326.5" fill="#F1F1F1" rx="12.5" ry="12.5" style="stroke:#181818;stroke-width:0.5;"/><text fill="#000000" font-family="sans-serif" font-size="14" lengthAdjust="spacing" textLength="9" x="828" y="331.3467">o</text></g><!--link Person/ID : INTEGER to Person--><g id="link_Person/ID : INTEGER_Person"><path d="M324.47,138.84 C337.75,142.34 352.72,146.07 366.5,149 C526.56,183.08 720.15,211.41 797.81,222.26 " fill="none" id="Person/ID : INTEGER-Person" style="stroke:#181818;stroke-width:1.0;"/></g><!--link Person/Name to Person--><g id="link_Person/Name_Person"><path d="M436.62,138.13 C445.14,141.93 455.15,146.04 464.5,149 C584.34,186.98 732.03,211.94 797.93,221.99 " fill="none" id="Person/Name-Person" style="stroke:#181818;stroke-width:1.0;"/></g><!--link Person/Name/First Name : STRING to Person/Name--><g id="link_Person/Name/First Name : STRING_Person/Name"><path d="M332.56,43.88 C352.87,63.99 385.33,96.13 403.02,113.64 " fill="none" id="Person/Name/First Name : STRING-Person/Name" style="stroke:#181818;stroke-width:1.0;"/></g><!--link Person/Name/Last Name : STRING to Person/Name--><g id="link_Person/Name/Last Name : STRING_Person/Name"><path d="M497.62,43.88 C477.51,63.99 445.37,96.13 427.86,113.64 " fill="none" id="Person/Name/Last Name : STRING-Person/Name" style="stroke:#181818;stroke-width:1.0;"/></g><!--link Person/Date of Birth : DATE to Person--><g id="link_Person/Date of Birth : DATE_Person"><path d="M606.38,143.47 C659.08,162.94 748.63,196.02 797.74,214.16 " fill="none" id="Person/Date of Birth : DATE-Person" style="stroke:#181818;stroke-width:1.0;"/></g><!--link Person/Age : Integer to Person--><g id="link_Person/Age : Integer_Person"><path d="M757.6,141.77 C773.19,159.51 800.32,190.38 817.29,209.69 " fill="none" id="Person/Age : Integer-Person" style="stroke:#181818;stroke-width:1.0;"/></g><!--link Person/Address : STRING to Person--><g id="link_Person/Address : STRING_Person"><path d="M905.97,144.35 C889.86,162.47 864,191.57 847.64,209.96 " fill="none" id="Person/Address : STRING-Person" style="stroke:#181818;stroke-width:1.0;"/></g><!--link Person/Email : STRING to Person--><g id="link_Person/Email : STRING_Person"><path d="M1065.74,140.84 C1014.33,159.83 918.58,195.2 867.2,214.18 " fill="none" id="Person/Email : STRING-Person" style="stroke:#181818;stroke-width:1.0;"/></g><!--link Person/Phone Number : STRING to Person--><g id="link_Person/Phone Number : STRING_Person"><path d="M1231.7,142.55 C1130.19,164.03 944.05,203.4 867.15,219.67 " fill="none" id="Person/Phone Number : STRING-Person" style="stroke:#181818;stroke-width:1.0;"/></g><!--link Person/Gender : STRING to Person--><g id="link_Person/Gender : STRING_Person"><path d="M1458.01,140.17 C1444.3,143.3 1429.37,146.5 1415.5,149 C1208.74,186.35 957.74,214.05 867.17,223.48 " fill="none" id="Person/Gender : STRING-Person" style="stroke:#181818;stroke-width:1.0;"/></g><!--link Student/First Term : INTEGER to Student--><g id="link_Student/First Term : INTEGER_Student"><path d="M409.02,447.02 C444.74,465.15 500.96,493.7 536.76,511.87 " fill="none" id="Student/First Term : INTEGER-Student" style="stroke:#181818;stroke-width:1.0;"/></g><!--link Student/Terms : INTEGER to Student--><g id="link_Student/Terms : INTEGER_Student"><path d="M570.5,446.79 C570.5,464.89 570.5,493.54 570.5,511.79 " fill="none" id="Student/Terms : INTEGER-Student" style="stroke:#181818;stroke-width:1.0;"/></g><!--link Professor/Position to Professor--><g id="link_Professor/Position_Professor"><path d="M2503.68,444.18 C2521.54,462.04 2552.19,492.69 2571.35,511.85 " fill="none" id="Professor/Position-Professor" style="stroke:#181818;stroke-width:1.0;"/></g><!--link Professor/Office Number : INTEGER to Professor--><g id="link_Professor/Office Number : INTEGER_Professor"><path d="M2666.99,450.51 C2648.86,468.64 2622.74,494.76 2605.69,511.81 " fill="none" id="Professor/Office Number : INTEGER-Professor" style="stroke:#181818;stroke-width:1.0;"/></g><!--link Department/ID : INT to Department--><g id="link_Department/ID : INT_Department"><path d="M945.37,441.94 C920.37,459.38 873.73,491.89 845.07,511.87 " fill="none" id="Department/ID : INT-Department" style="stroke:#181818;stroke-width:1.0;"/></g><!--link Department/Name : STRING to Department--><g id="link_Department/Name : STRING_Department"><path d="M820.5,445.91 C820.5,463.94 820.5,493.25 820.5,511.8 " fill="none" id="Department/Name : STRING-Department" style="stroke:#181818;stroke-width:1.0;"/></g><!--link Major/ID : INT to Major--><g id="link_Major/ID : INT_Major"><path d="M64.7,441.16 C98.5,458.96 164.67,493.81 202.72,513.84 " fill="none" id="Major/ID : INT-Major" style="stroke:#181818;stroke-width:1.0;"/></g><!--link Major/Name : STRING to Major--><g id="link_Major/Name : STRING_Major"><path d="M192.69,445.47 C201.08,463.52 214.91,493.29 223.59,511.98 " fill="none" id="Major/Name : STRING-Major" style="stroke:#181818;stroke-width:1.0;"/></g><!--link Course/ID : INT to Course--><g id="link_Course/ID : INT_Course"><path d="M1781.66,442.94 C1798.2,460.55 1827.85,492.11 1846.27,511.73 " fill="none" id="Course/ID : INT-Course" style="stroke:#181818;stroke-width:1.0;"/></g><!--link Course/Name : STRING to Course--><g id="link_Course/Name : STRING_Course"><path d="M1903.84,445.47 C1894.91,463.52 1880.18,493.29 1870.92,511.98 " fill="none" id="Course/Name : STRING-Course" style="stroke:#181818;stroke-width:1.0;"/></g><!--link Course/Theoretical Units : INT to Course--><g id="link_Course/Theoretical Units : INT_Course"><path d="M2064.28,446.79 C2017.43,465.88 1941.75,496.71 1897.6,514.7 " fill="none" id="Course/Theoretical Units : INT-Course" style="stroke:#181818;stroke-width:1.0;"/></g><!--link Course/Practical Units : INT to Course--><g id="link_Course/Practical Units : INT_Course"><path d="M2253.79,442.34 C2160.41,463.02 1974.94,504.1 1897.62,521.22 " fill="none" id="Course/Practical Units : INT-Course" style="stroke:#181818;stroke-width:1.0;"/></g><!--link Course/Total Units : INT to Course--><g id="link_Course/Total Units : INT_Course"><path d="M1659.31,443.77 C1703.52,462.31 1781.87,495.17 1827.27,514.22 " fill="none" id="Course/Total Units : INT-Course" style="stroke:#181818;stroke-width:1.0;"/></g><!--link CGroup/ID : INT to CGroup--><g id="link_CGroup/ID : INT_CGroup"><path d="M1467.67,442.34 C1445.2,459.86 1403.95,492.01 1378.51,511.85 " fill="none" id="CGroup/ID : INT-CGroup" style="stroke:#181818;stroke-width:1.0;"/></g><!--link CGroup/Term : INT to CGroup--><g id="link_CGroup/Term : INT_CGroup"><path d="M1232.77,442.74 C1258.09,460.39 1303.9,492.33 1332.12,512 " fill="none" id="CGroup/Term : INT-CGroup" style="stroke:#181818;stroke-width:1.0;"/></g><!--link CGroup/Class : INT to CGroup--><g id="link_CGroup/Class : INT_CGroup"><path d="M1356.5,443.77 C1356.5,461.51 1356.5,492.38 1356.5,511.69 " fill="none" id="CGroup/Class : INT-CGroup" style="stroke:#181818;stroke-width:1.0;"/></g><!--link CGroup/TimeSlot to CGroup--><g id="link_CGroup/TimeSlot_CGroup"><path d="M1109.26,440.31 C1156.61,457.3 1251.48,491.33 1308.95,511.94 " fill="none" id="CGroup/TimeSlot-CGroup" style="stroke:#181818;stroke-width:1.0;"/></g><!--link CGroup/TimeSlot/Day of Week : INT to CGroup/TimeSlot--><g id="link_CGroup/TimeSlot/Day of Week : INT_CGroup/TimeSlot"><path d="M1011.21,344.1 C1027.6,363.94 1054.7,396.75 1069.69,414.91 " fill="none" id="CGroup/TimeSlot/Day of Week : INT-CGroup/TimeSlot" style="stroke:#181818;stroke-width:1.0;"/></g><!--link CGroup/TimeSlot/Start Time : TIME to CGroup/TimeSlot--><g id="link_CGroup/TimeSlot/Start Time : TIME_CGroup/TimeSlot"><path d="M1166.56,343.2 C1146.5,362.97 1112.42,396.55 1093.73,414.96 " fill="none" id="CGroup/TimeSlot/Start Time : TIME-CGroup/TimeSlot" style="stroke:#181818;stroke-width:1.0;"/></g><!--link CGroup/TimeSlot/End Time : TIME to CGroup/TimeSlot--><g id="link_CGroup/TimeSlot/End Time : TIME_CGroup/TimeSlot"><path d="M2807.48,328.16 C2522.11,331.16 1470.53,346.22 1143.5,407 C1131.37,409.25 1118.38,413.29 1107.36,417.23 " fill="none" id="CGroup/TimeSlot/End Time : TIME-CGroup/TimeSlot" style="stroke:#181818;stroke-width:1.0;"/></g><!--link CGroup/TimeSlot/Duration : DURATION to CGroup/TimeSlot--><g id="link_CGroup/TimeSlot/Duration : DURATION_CGroup/TimeSlot"><path d="M720.91,339.56 C793.5,353.65 914.81,378.66 1017.5,407 C1028.72,410.1 1040.9,414.02 1051.53,417.63 " fill="none" id="CGroup/TimeSlot/Duration : DURATION-CGroup/TimeSlot" style="stroke:#181818;stroke-width:1.0;"/></g><!--link Studies/Grade : DECIMAL to Studies--><g id="link_Studies/Grade : DECIMAL_Studies"><path d="M1012.5,643.23 C1012.5,661.16 1012.5,690.27 1012.5,711.31 " fill="none" id="Studies/Grade : DECIMAL-Studies" style="stroke:#181818;stroke-width:1.0;"/></g><!--link Person to Person/oStudent, Professor/center--><g id="link_Person_Person/oStudent, Professor/center"><path d="M832.5,246.25 C832.5,265.77 832.5,297.02 832.5,313.85 " fill="none" id="Person-Person/oStudent, Professor/center" style="stroke:#181818;stroke-width:1.0;"/></g><!--link Person/oStudent, Professor/center to Student--><g id="link_Person/oStudent, Professor/center_Student"><path d="M822.86,334.91 C785.2,363.88 647.31,469.93 592.85,511.81 " fill="none" id="Person/oStudent, Professor/center-Student" style="stroke:#181818;stroke-width:1.0;"/><path d="M710.4971,413.7627 A6,6 0 0 0 717.8129 423.2748" fill="none" style="stroke:#181818;stroke-width:1.5;"/><line style="stroke:#181818;stroke-width:1.5;" x1="710.4971" x2="718.4239" y1="413.7627" y2="407.6663"/><line style="stroke:#181818;stroke-width:1.5;" x1="717.8129" x2="725.7396" y1="423.2748" y2="417.1784"/></g><!--link Person/oStudent, Professor/center to Professor--><g id="link_Person/oStudent, Professor/center_Professor"><path d="M844.39,331.47 C858.36,335.93 882.32,342.94 903.5,346 C1008.02,361.1 2730.03,331.13 2803.5,407 C2861.12,466.5 2709.66,505.63 2631.62,521.28 " fill="none" id="Person/oStudent, Professor/center-Professor" style="stroke:#181818;stroke-width:1.0;"/><path d="M1865.0923,359.711 A6,6 0 0 0 1865.1952 347.7115" fill="none" style="stroke:#181818;stroke-width:1.5;"/><line style="stroke:#181818;stroke-width:1.5;" x1="1865.0923" x2="1855.0927" y1="359.711" y2="359.6254"/><line style="stroke:#181818;stroke-width:1.5;" x1="1865.1952" x2="1855.1955" y1="347.7115" y2="347.6258"/></g><!--link Student to Majors--><g id="link_Student_Majors"><path d="M557.89,548.21 C530.24,585.92 464.42,675.72 434.62,716.37 " fill="none" id="Student-Majors" style="stroke:#181818;stroke-width:1.0;"/><text fill="#000000" font-family="sans-serif" font-size="11" lengthAdjust="spacing" textLength="9" x="514.5" y="630.2104">M</text></g><!--link Major to Majors--><g id="link_Major_Majors"><path d="M247.21,548.21 C281.98,586.31 365.26,677.57 401.8,717.61 " fill="none" id="Major-Majors" style="stroke:#181818;stroke-width:1.0;"/><text fill="#000000" font-family="sans-serif" font-size="11" lengthAdjust="spacing" textLength="8" x="334.5" y="630.2104">N</text></g><!--link Department to Offers--><g id="link_Department_Offers"><path d="M801.95,548.21 C759.33,587.76 654.98,684.59 614.71,721.95 " fill="none" id="Department-Offers" style="stroke:#181818;stroke-width:1.0;"/><text fill="#000000" font-family="sans-serif" font-size="11" lengthAdjust="spacing" textLength="7" x="737.5" y="630.2104">1</text></g><!--link Major to Offers--><g id="link_Major_Offers"><path d="M260.3,547.16 C331.27,587 513.38,689.22 576.54,724.67 " fill="none" id="Major-Offers" style="stroke:#181818;stroke-width:1.0;"/><text fill="#000000" font-family="sans-serif" font-size="11" lengthAdjust="spacing" textLength="8" x="431.5" y="630.2104">N</text></g><!--link Student to Studies--><g id="link_Student_Studies"><path d="M582.82,548.13 C601.43,572.75 639.07,617.95 681.5,643 C776.03,698.8 905.39,722.93 970.87,732.1 " fill="none" id="Student-Studies" style="stroke:#181818;stroke-width:1.0;"/><text fill="#000000" font-family="sans-serif" font-size="11" lengthAdjust="spacing" textLength="9" x="682.5" y="630.2104">M</text></g><!--link CGroup to Studies--><g id="link_CGroup_Studies"><path d="M1328.06,548.03 C1261.57,587.84 1097.02,686.38 1035.87,723 " fill="none" id="CGroup-Studies" style="stroke:#181818;stroke-width:1.0;"/><text fill="#000000" font-family="sans-serif" font-size="11" lengthAdjust="spacing" textLength="8" x="1226.5" y="630.2104">N</text></g><!--link Professor to Teaches--><g id="link_Professor_Teaches"><path d="M2545.28,544.68 C2423.74,583.14 2080.69,691.69 1971.4,726.27 " fill="none" id="Professor-Teaches" style="stroke:#181818;stroke-width:1.0;"/><text fill="#000000" font-family="sans-serif" font-size="11" lengthAdjust="spacing" textLength="7" x="2341.5" y="630.2104">1</text></g><!--link CGroup to Teaches--><g id="link_CGroup_Teaches"><path d="M1401.53,548.09 C1460.59,570.41 1567.5,610.45 1659.5,643 C1747.4,674.1 1851.69,708.77 1904.02,726.01 " fill="none" id="CGroup-Teaches" style="stroke:#181818;stroke-width:1.0;"/><text fill="#000000" font-family="sans-serif" font-size="11" lengthAdjust="spacing" textLength="8" x="1660.5" y="630.2104">N</text></g><!--link CGroup to Implements--><g id="link_CGroup_Implements"><path d="M1361.85,548.21 C1372.84,583.6 1398.09,664.87 1411.59,708.33 " fill="none" id="CGroup-Implements" style="stroke:#181818;stroke-width:1.0;"/><text fill="#000000" font-family="sans-serif" font-size="11" lengthAdjust="spacing" textLength="9" x="1391.5" y="630.2104">M</text></g><!--link Course to Implements--><g id="link_Course_Implements"><path d="M1837.93,548 C1803.28,571.47 1737.58,614.16 1677.5,643 C1604.05,678.26 1513.67,708.46 1462.01,724.56 " fill="none" id="Course-Implements" style="stroke:#181818;stroke-width:1.0;"/><text fill="#000000" font-family="sans-serif" font-size="11" lengthAdjust="spacing" textLength="7" x="1740.5" y="630.2104">1</text></g><!--SRC=[ZLJHJkf047tkViM49qrkpPMeCOqn8gsaNeg45k_pIWVOQxjBjbiJOlZtErjQMfG7ds3FpCwSCtkc3uNXsYpMAA6KuWDr8SoMCPI6Vc5APoNXapcX3nw4aoGO1JEuktl7xVqzSoOyHnjrdeGk35H73-9a5av6X8xvTt3779yR1BM4Hw7DcaB-80cOCrZPj50QNA6c5YbgufFQDeCqrLWKdIf1paNMEK_NIY9ColoDxhRm26NQ1NQDiDYKAVsrtFVK4zHvgv0vzbmSIMxv7AfCjLeIBwLjdLuYJDOgxG4lOAfed499vhmibsBHOTWqEjJoSKCFaTUacd5_6VLt8H7_js__unj3LUe2VtB5ITQeD1gnu1dCfJ3rG6ZScYzEm8aonz3fiVLg2YEjoaqrfs7rzpIdzcMOCynuqNOJESQPgkP5djfQI_r5V6_YJcoj3JQDe2ICo6HE8DClY5zgRj_86d4-6oJXo-JOVJjYpZHcLLQn5XkWnwJ5eBwxOxnNlKP19gvKrQTlQTPy0ct06McUMYv-C0oZmVXhPeASLlD4YJ3VP6ZDie-nUb7TUnSKVDRk_jKQb58QoxkHMpDZU_EuamF0EYvqBzrQQ2Ul1ewArN9O_OWshO5Oko6sN2sdczb01umAjk9OxHHxkOEo1zfh-ysY1XcNPXwDeVfqqGWkB_g_-rSNrsTnAKdM5letSDdthgwzwri8Pt42DdxEpaRJCHHKdhOo5ONHugsquprdp_o3mwmah-RemSi6vRF_fm4Wa1z2Asc9iEVNg4sukN8VXO4ODL61ruXckUHbPkZ6GgL2hZoO9q_kBHjpkIhvYcgJ018eZTvwC1py1m00]--></g></svg>